<mxfile host="app.diagrams.net" agent="Mozilla/5.0 (Windows NT 10.0; Win64; x64) AppleWebKit/537.36 (KHTML, like Gecko) Chrome/129.0.0.0 Safari/537.36 Edg/129.0.0.0" version="24.7.16">
  <diagram name="Page-1" id="kFGG1RIeFPbBGu7H3uM_">
    <mxGraphModel dx="1386" dy="781" grid="1" gridSize="10" guides="1" tooltips="1" connect="1" arrows="1" fold="1" page="1" pageScale="1" pageWidth="827" pageHeight="1169" math="0" shadow="0">
      <root>
        <mxCell id="0" />
        <mxCell id="1" parent="0" />
        <mxCell id="M188PxAf_RQBNVjCVJp2-15" style="edgeStyle=orthogonalEdgeStyle;rounded=0;orthogonalLoop=1;jettySize=auto;html=1;labelBackgroundColor=none;strokeColor=#736CA8;fontColor=default;" parent="1" source="M188PxAf_RQBNVjCVJp2-3" target="M188PxAf_RQBNVjCVJp2-4" edge="1">
          <mxGeometry relative="1" as="geometry" />
        </mxCell>
        <mxCell id="M188PxAf_RQBNVjCVJp2-3" value="" style="image;aspect=fixed;html=1;points=[];align=center;fontSize=12;image=img/lib/azure2/other/Connected_Vehicle_Platform.svg;labelBackgroundColor=none;fillColor=#5D7F99;strokeColor=#D0CEE2;fontColor=#1A1A1A;" parent="1" vertex="1">
          <mxGeometry x="30" y="220" width="68" height="52" as="geometry" />
        </mxCell>
        <mxCell id="M188PxAf_RQBNVjCVJp2-10" style="edgeStyle=orthogonalEdgeStyle;rounded=0;orthogonalLoop=1;jettySize=auto;html=1;entryX=0;entryY=0.5;entryDx=0;entryDy=0;labelBackgroundColor=none;strokeColor=#736CA8;fontColor=default;" parent="1" source="M188PxAf_RQBNVjCVJp2-4" target="M188PxAf_RQBNVjCVJp2-9" edge="1">
          <mxGeometry relative="1" as="geometry">
            <Array as="points">
              <mxPoint x="360" y="270" />
              <mxPoint x="360" y="370" />
            </Array>
          </mxGeometry>
        </mxCell>
        <mxCell id="M188PxAf_RQBNVjCVJp2-19" value="③write" style="edgeLabel;html=1;align=center;verticalAlign=middle;resizable=0;points=[];fontSize=20;labelBackgroundColor=none;fontColor=#1A1A1A;" parent="M188PxAf_RQBNVjCVJp2-10" vertex="1" connectable="0">
          <mxGeometry relative="1" as="geometry">
            <mxPoint as="offset" />
          </mxGeometry>
        </mxCell>
        <mxCell id="M188PxAf_RQBNVjCVJp2-4" value="アダプトミドル" style="sketch=0;outlineConnect=0;fontColor=#1A1A1A;strokeColor=#D0CEE2;fillColor=#5D7F99;dashed=0;verticalLabelPosition=middle;verticalAlign=bottom;align=center;html=1;whiteSpace=wrap;fontSize=10;fontStyle=1;spacing=3;shape=mxgraph.aws4.productIcon;prIcon=mxgraph.aws4.ec2;labelBackgroundColor=none;" parent="1" vertex="1">
          <mxGeometry x="220" y="196" width="80" height="100" as="geometry" />
        </mxCell>
        <mxCell id="M188PxAf_RQBNVjCVJp2-11" style="edgeStyle=orthogonalEdgeStyle;rounded=0;orthogonalLoop=1;jettySize=auto;html=1;entryX=1;entryY=0.5;entryDx=0;entryDy=0;labelBackgroundColor=none;strokeColor=#736CA8;fontColor=default;" parent="1" source="M188PxAf_RQBNVjCVJp2-5" target="M188PxAf_RQBNVjCVJp2-9" edge="1">
          <mxGeometry relative="1" as="geometry">
            <Array as="points">
              <mxPoint x="580" y="270" />
              <mxPoint x="580" y="370" />
            </Array>
          </mxGeometry>
        </mxCell>
        <mxCell id="M188PxAf_RQBNVjCVJp2-20" value="⑦read" style="edgeLabel;html=1;align=center;verticalAlign=middle;resizable=0;points=[];fontSize=20;labelBackgroundColor=none;fontColor=#1A1A1A;" parent="M188PxAf_RQBNVjCVJp2-11" vertex="1" connectable="0">
          <mxGeometry x="0.09" y="3" relative="1" as="geometry">
            <mxPoint as="offset" />
          </mxGeometry>
        </mxCell>
        <mxCell id="M188PxAf_RQBNVjCVJp2-5" value="コアミドル" style="sketch=0;outlineConnect=0;fontColor=#1A1A1A;strokeColor=#D0CEE2;fillColor=#5D7F99;dashed=0;verticalLabelPosition=middle;verticalAlign=bottom;align=center;html=1;whiteSpace=wrap;fontSize=10;fontStyle=1;spacing=3;shape=mxgraph.aws4.productIcon;prIcon=mxgraph.aws4.ec2;labelBackgroundColor=none;" parent="1" vertex="1">
          <mxGeometry x="690" y="200" width="80" height="100" as="geometry" />
        </mxCell>
        <mxCell id="M188PxAf_RQBNVjCVJp2-9" value="InfluxDB" style="shape=datastore;whiteSpace=wrap;html=1;fontSize=20;labelBackgroundColor=none;fillColor=#5D7F99;strokeColor=#D0CEE2;fontColor=#1A1A1A;" parent="1" vertex="1">
          <mxGeometry x="424.5" y="340" width="89" height="60" as="geometry" />
        </mxCell>
        <mxCell id="M188PxAf_RQBNVjCVJp2-12" value="" style="sketch=0;points=[[0,0,0],[0.25,0,0],[0.5,0,0],[0.75,0,0],[1,0,0],[0,1,0],[0.25,1,0],[0.5,1,0],[0.75,1,0],[1,1,0],[0,0.25,0],[0,0.5,0],[0,0.75,0],[1,0.25,0],[1,0.5,0],[1,0.75,0]];outlineConnect=0;fontColor=#1A1A1A;fillColor=#5D7F99;strokeColor=#D0CEE2;dashed=0;verticalLabelPosition=bottom;verticalAlign=top;align=center;html=1;fontSize=12;fontStyle=0;aspect=fixed;shape=mxgraph.aws4.resourceIcon;resIcon=mxgraph.aws4.managed_streaming_for_kafka;labelBackgroundColor=none;" parent="1" vertex="1">
          <mxGeometry x="430" y="207" width="78" height="78" as="geometry" />
        </mxCell>
        <mxCell id="M188PxAf_RQBNVjCVJp2-13" value="" style="edgeStyle=orthogonalEdgeStyle;rounded=0;orthogonalLoop=1;jettySize=auto;html=1;entryX=0;entryY=0.5;entryDx=0;entryDy=0;entryPerimeter=0;labelBackgroundColor=none;strokeColor=#736CA8;fontColor=default;" parent="1" source="M188PxAf_RQBNVjCVJp2-4" target="M188PxAf_RQBNVjCVJp2-12" edge="1">
          <mxGeometry relative="1" as="geometry">
            <Array as="points">
              <mxPoint x="421" y="246" />
            </Array>
          </mxGeometry>
        </mxCell>
        <mxCell id="M188PxAf_RQBNVjCVJp2-35" value="④inform" style="edgeLabel;html=1;align=center;verticalAlign=middle;resizable=0;points=[];fontSize=20;labelBackgroundColor=none;fontColor=#1A1A1A;" parent="M188PxAf_RQBNVjCVJp2-13" vertex="1" connectable="0">
          <mxGeometry x="-0.0513" relative="1" as="geometry">
            <mxPoint as="offset" />
          </mxGeometry>
        </mxCell>
        <mxCell id="M188PxAf_RQBNVjCVJp2-14" style="edgeStyle=orthogonalEdgeStyle;rounded=0;orthogonalLoop=1;jettySize=auto;html=1;entryX=1;entryY=0.5;entryDx=0;entryDy=0;entryPerimeter=0;labelBackgroundColor=none;strokeColor=#736CA8;fontColor=default;" parent="1" source="M188PxAf_RQBNVjCVJp2-5" target="M188PxAf_RQBNVjCVJp2-12" edge="1">
          <mxGeometry relative="1" as="geometry">
            <Array as="points">
              <mxPoint x="620" y="246" />
              <mxPoint x="620" y="246" />
            </Array>
          </mxGeometry>
        </mxCell>
        <mxCell id="M188PxAf_RQBNVjCVJp2-34" value="①subscribe&lt;div style=&quot;font-size: 20px;&quot;&gt;⑤process event&lt;/div&gt;" style="edgeLabel;html=1;align=center;verticalAlign=middle;resizable=0;points=[];fontSize=20;labelBackgroundColor=none;fontColor=#1A1A1A;" parent="M188PxAf_RQBNVjCVJp2-14" vertex="1" connectable="0">
          <mxGeometry x="-0.0385" y="-2" relative="1" as="geometry">
            <mxPoint y="1" as="offset" />
          </mxGeometry>
        </mxCell>
        <mxCell id="M188PxAf_RQBNVjCVJp2-16" style="edgeStyle=orthogonalEdgeStyle;rounded=0;orthogonalLoop=1;jettySize=auto;html=1;labelBackgroundColor=none;strokeColor=#736CA8;fontColor=default;" parent="1" source="M188PxAf_RQBNVjCVJp2-4" target="M188PxAf_RQBNVjCVJp2-3" edge="1">
          <mxGeometry relative="1" as="geometry">
            <mxPoint x="70" y="300" as="targetPoint" />
          </mxGeometry>
        </mxCell>
        <mxCell id="M188PxAf_RQBNVjCVJp2-17" value="①send&lt;div style=&quot;font-size: 20px;&quot;&gt;⑤reply&lt;/div&gt;" style="edgeLabel;html=1;align=center;verticalAlign=middle;resizable=0;points=[];fontSize=20;labelBackgroundColor=none;fontColor=#1A1A1A;" parent="M188PxAf_RQBNVjCVJp2-16" vertex="1" connectable="0">
          <mxGeometry x="-0.0328" relative="1" as="geometry">
            <mxPoint as="offset" />
          </mxGeometry>
        </mxCell>
        <mxCell id="M188PxAf_RQBNVjCVJp2-21" value="" style="outlineConnect=0;dashed=0;verticalLabelPosition=bottom;verticalAlign=top;align=center;html=1;shape=mxgraph.aws3.dynamo_db;fillColor=#5D7F99;labelBackgroundColor=none;strokeColor=#D0CEE2;fontColor=#1A1A1A;" parent="1" vertex="1">
          <mxGeometry x="694" y="380" width="72" height="81" as="geometry" />
        </mxCell>
        <mxCell id="M188PxAf_RQBNVjCVJp2-22" style="edgeStyle=orthogonalEdgeStyle;rounded=0;orthogonalLoop=1;jettySize=auto;html=1;entryX=0.5;entryY=0;entryDx=0;entryDy=0;entryPerimeter=0;labelBackgroundColor=none;strokeColor=#736CA8;fontColor=default;" parent="1" source="M188PxAf_RQBNVjCVJp2-5" target="M188PxAf_RQBNVjCVJp2-21" edge="1">
          <mxGeometry relative="1" as="geometry" />
        </mxCell>
        <mxCell id="M188PxAf_RQBNVjCVJp2-23" value="⑧write" style="edgeLabel;html=1;align=center;verticalAlign=middle;resizable=0;points=[];fontSize=20;labelBackgroundColor=none;fontColor=#1A1A1A;" parent="M188PxAf_RQBNVjCVJp2-22" vertex="1" connectable="0">
          <mxGeometry x="-0.0958" relative="1" as="geometry">
            <mxPoint as="offset" />
          </mxGeometry>
        </mxCell>
        <mxCell id="M188PxAf_RQBNVjCVJp2-24" value="" style="sketch=0;points=[[0,0,0],[0.25,0,0],[0.5,0,0],[0.75,0,0],[1,0,0],[0,1,0],[0.25,1,0],[0.5,1,0],[0.75,1,0],[1,1,0],[0,0.25,0],[0,0.5,0],[0,0.75,0],[1,0.25,0],[1,0.5,0],[1,0.75,0]];outlineConnect=0;fontColor=#1A1A1A;fillColor=#5D7F99;strokeColor=#D0CEE2;dashed=0;verticalLabelPosition=bottom;verticalAlign=top;align=center;html=1;fontSize=12;fontStyle=0;aspect=fixed;shape=mxgraph.aws4.resourceIcon;resIcon=mxgraph.aws4.elasticache;labelBackgroundColor=none;" parent="1" vertex="1">
          <mxGeometry x="430" y="90" width="78" height="78" as="geometry" />
        </mxCell>
        <mxCell id="M188PxAf_RQBNVjCVJp2-27" style="edgeStyle=orthogonalEdgeStyle;rounded=0;orthogonalLoop=1;jettySize=auto;html=1;entryX=1;entryY=0.5;entryDx=0;entryDy=0;entryPerimeter=0;labelBackgroundColor=none;strokeColor=#736CA8;fontColor=default;" parent="1" source="M188PxAf_RQBNVjCVJp2-5" target="M188PxAf_RQBNVjCVJp2-24" edge="1">
          <mxGeometry relative="1" as="geometry">
            <mxPoint x="670" y="190" as="sourcePoint" />
            <Array as="points">
              <mxPoint x="580" y="210" />
              <mxPoint x="580" y="129" />
            </Array>
          </mxGeometry>
        </mxCell>
        <mxCell id="M188PxAf_RQBNVjCVJp2-33" value="⑥sync" style="edgeLabel;html=1;align=center;verticalAlign=middle;resizable=0;points=[];fontSize=20;labelBackgroundColor=none;fontColor=#1A1A1A;" parent="M188PxAf_RQBNVjCVJp2-27" vertex="1" connectable="0">
          <mxGeometry x="0.1284" y="-1" relative="1" as="geometry">
            <mxPoint as="offset" />
          </mxGeometry>
        </mxCell>
        <mxCell id="M188PxAf_RQBNVjCVJp2-28" style="edgeStyle=orthogonalEdgeStyle;rounded=0;orthogonalLoop=1;jettySize=auto;html=1;entryX=0;entryY=0.5;entryDx=0;entryDy=0;entryPerimeter=0;labelBackgroundColor=none;strokeColor=#736CA8;fontColor=default;" parent="1" source="M188PxAf_RQBNVjCVJp2-4" target="M188PxAf_RQBNVjCVJp2-24" edge="1">
          <mxGeometry relative="1" as="geometry">
            <Array as="points">
              <mxPoint x="360" y="220" />
              <mxPoint x="360" y="129" />
            </Array>
          </mxGeometry>
        </mxCell>
        <mxCell id="M188PxAf_RQBNVjCVJp2-30" value="②load" style="edgeLabel;html=1;align=center;verticalAlign=middle;resizable=0;points=[];fontSize=20;labelBackgroundColor=none;fontColor=#1A1A1A;" parent="M188PxAf_RQBNVjCVJp2-28" vertex="1" connectable="0">
          <mxGeometry x="-0.181" y="2" relative="1" as="geometry">
            <mxPoint as="offset" />
          </mxGeometry>
        </mxCell>
      </root>
    </mxGraphModel>
  </diagram>
</mxfile>
